<svg width="165" height="157" viewBox="0 0 165 157" fill="none" xmlns="http://www.w3.org/2000/svg">
<g clip-path="url(#clip0_37_47)">
<path d="M159.425 84.9221H141.805C141.746 81.5349 141.4 78.2174 140.787 74.9917L154.816 72.2173C155.384 72.1036 155.749 71.5568 155.639 70.9953C155.524 70.4302 154.975 70.0669 154.41 70.177L140.363 72.955C139.665 69.887 138.728 66.9109 137.569 64.0411L161.701 54.1621C162.236 53.9419 162.491 53.3364 162.269 52.8043C162.048 52.2722 161.439 52.0189 160.904 52.2391L136.754 62.1292C135.463 59.23 133.942 56.452 132.215 53.8208L144.016 46.0115C144.495 45.6923 144.628 45.0464 144.307 44.5693C143.986 44.0922 143.337 43.9601 142.857 44.2794L131.042 52.0997C129.216 49.5198 127.186 47.0904 124.98 44.8335L143.477 26.492C143.887 26.0884 143.887 25.4278 143.481 25.0205C143.071 24.6131 142.411 24.6131 142.001 25.0168L123.496 43.3656C121.212 41.1895 118.755 39.1968 116.146 37.4059L124.02 25.7141C124.341 25.237 124.212 24.5911 123.732 24.2718C123.253 23.9526 122.603 24.081 122.282 24.5581L114.408 36.25C111.755 34.5619 108.958 33.0793 106.043 31.8169L116.05 7.83862C116.272 7.30651 116.017 6.70099 115.486 6.48081C114.951 6.26062 114.342 6.51384 114.117 7.04228L104.11 31.0205C101.191 29.8829 98.158 28.9691 95.0363 28.2976L97.8702 14.1396C97.9845 13.5745 97.6156 13.0277 97.0473 12.9176C96.4828 12.8075 95.9293 13.1708 95.8186 13.7359L92.9848 27.8902C89.9148 27.3434 86.7673 27.0352 83.5535 26.9801L83.5461 1.03854C83.5461 0.462391 83.0775 0 82.4982 0C81.9188 0 81.4539 0.46606 81.4539 1.03854L81.4576 12.5176C81.4576 12.5286 81.4539 12.5359 81.4539 12.5469V26.9838C78.2437 27.0388 75.0963 27.3471 72.03 27.8902L69.1888 13.7323C69.0744 13.1708 68.5246 12.8038 67.9601 12.9176C67.3918 13.0313 67.0265 13.5781 67.1372 14.1396L69.9784 28.2976C66.9011 28.9581 63.9123 29.8536 61.0342 30.9692L51.0715 6.96889C50.8501 6.43677 50.2413 6.18356 49.7063 6.40374C49.1712 6.62393 48.9166 7.22944 49.138 7.76156L59.097 31.7582C56.1746 33.0096 53.374 34.4885 50.7173 36.1729L42.6402 24.1287C42.3191 23.6516 41.6697 23.5232 41.19 23.8388C40.7104 24.1581 40.5812 24.804 40.8985 25.281L48.9757 37.3215C46.3632 39.1087 43.8984 41.094 41.607 43.2629L23.1539 24.8884C22.7444 24.481 22.0839 24.481 21.6743 24.8884C21.2647 25.2957 21.2647 25.9526 21.6743 26.3599L40.1274 44.7271C37.9134 46.9767 35.8766 49.4024 34.0428 51.9786L21.9916 43.9675C21.512 43.6482 20.8625 43.7766 20.5415 44.2537C20.2205 44.7308 20.3496 45.3767 20.8293 45.6959L32.8657 53.696C31.1314 56.3236 29.6038 59.0979 28.305 61.9934L4.17693 52.052C3.6419 51.8318 3.03307 52.085 2.81168 52.6135C2.59029 53.1456 2.84489 53.7511 3.37623 53.9713L27.4859 63.9053C26.3051 66.8118 25.3457 69.832 24.641 72.9476L10.5936 70.1696C10.0254 70.0559 9.47559 70.4228 9.36489 70.988C9.2542 71.5531 9.6195 72.0999 10.1877 72.21L24.2203 74.9843C23.6078 78.2101 23.261 81.5275 23.2019 84.9184H1.04423C0.464924 84.9184 0 85.3845 0 85.957C0 86.5294 0.468614 86.9955 1.04423 86.9955H23.1798H141.817H159.421C161.343 86.9955 162.904 88.5515 162.904 90.4598V90.6616C162.904 92.4304 161.454 93.8726 159.676 93.8726H15.6377C14.1543 93.8726 12.7706 94.5295 11.8408 95.6782C10.911 96.8231 10.553 98.3094 10.8667 99.7516C11.3464 101.975 13.3536 103.587 15.6414 103.587H147.418C148.296 103.587 149.108 103.987 149.639 104.684C150.17 105.381 150.34 106.262 150.108 107.106C149.772 108.302 148.669 109.139 147.418 109.139H20.3681C18.7409 109.139 17.228 109.939 16.3203 111.282C15.4126 112.625 15.2355 114.321 15.8443 115.818C16.5934 117.66 18.3719 118.849 20.3681 118.849H140.717C141.713 118.849 142.614 119.359 143.119 120.214C143.625 121.069 143.639 122.097 143.156 122.967C142.665 123.851 141.728 124.398 140.713 124.398H29.5928C27.7441 124.398 26.0726 125.418 25.2387 127.058C24.4011 128.699 24.5635 130.64 25.6557 132.123C26.5708 133.367 28.043 134.108 29.5928 134.108H128.732C129.869 134.108 130.821 134.724 131.282 135.756C131.743 136.787 131.566 137.902 130.806 138.743C130.278 139.326 129.522 139.66 128.732 139.66H47.5034C45.3116 139.66 43.4778 141.007 42.8357 143.092C42.1937 145.176 42.9501 147.312 44.7655 148.537C45.5773 149.084 46.5219 149.374 47.5034 149.374H101.058C102.733 149.374 103.575 150.563 103.789 151.58C104.003 152.596 103.708 154.024 102.176 154.692C101.822 154.846 101.446 154.923 101.058 154.923H63.4289C62.8496 154.923 62.3847 155.389 62.3847 155.961C62.3847 156.534 62.8533 157 63.4289 157H101.058C101.733 157 102.394 156.864 103.014 156.593C105.523 155.499 106.242 153.073 105.837 151.15C105.431 149.227 103.796 147.29 101.058 147.29H47.5034C46.9426 147.29 46.4038 147.125 45.9389 146.813C44.6807 145.965 44.5441 144.648 44.8356 143.701C45.1271 142.754 45.9832 141.741 47.5034 141.741H128.732C130.112 141.741 131.433 141.158 132.359 140.137C133.669 138.691 133.99 136.691 133.193 134.912C132.4 133.135 130.688 132.031 128.732 132.031H29.5928C28.7072 132.031 27.8659 131.605 27.3419 130.897C26.7073 130.035 26.6187 128.952 27.1021 128.001C27.5855 127.051 28.519 126.482 29.5928 126.482H140.717C142.492 126.482 144.13 125.521 144.99 123.976C145.835 122.456 145.809 120.655 144.923 119.161C144.038 117.664 142.466 116.772 140.717 116.772H20.3681C19.2279 116.772 18.2132 116.093 17.7815 115.04C17.4273 114.17 17.5269 113.223 18.0545 112.445C18.5822 111.667 19.4235 111.22 20.3681 111.22H147.418C149.602 111.22 151.539 109.755 152.122 107.664C152.536 106.188 152.237 104.643 151.303 103.425C150.37 102.207 148.956 101.509 147.418 101.509H15.6377C14.3315 101.509 13.1839 100.588 12.9109 99.3186C12.7337 98.4965 12.9367 97.6452 13.468 96.9919C13.9994 96.3387 14.7927 95.9607 15.6377 95.9607H159.679C162.613 95.9607 165 93.5864 165 90.6689V90.4671C165.004 87.4102 162.502 84.9221 159.425 84.9221ZM138.311 73.3586L92.8482 82.3532L135.636 64.8338C136.743 67.5788 137.643 70.4265 138.311 73.3586ZM134.824 62.9182L91.9295 80.4817L130.478 54.9694C132.127 57.4869 133.584 60.1438 134.824 62.9182ZM129.3 53.2483L90.7672 78.7532L123.5 46.2978C125.614 48.4519 127.551 50.7786 129.3 53.2483ZM122.013 44.8335L89.2875 77.2816L114.98 39.1307C117.478 40.8445 119.829 42.7528 122.013 44.8335ZM113.242 37.9747L87.5496 76.122L105.239 33.7362C108.028 34.9435 110.704 36.3637 113.242 37.9747ZM103.305 32.9398L85.6161 75.3256L94.6268 30.3343C97.6119 30.9802 100.512 31.8536 103.305 32.9398ZM92.5752 29.9306L83.5645 74.922L83.5535 29.0609C86.6271 29.1159 89.6381 29.4095 92.5752 29.9306ZM81.4539 29.0609V74.8302L72.4433 29.9269C75.3767 29.4095 78.3876 29.1159 81.4539 29.0609ZM70.3917 30.3343L79.3987 75.2045L61.8349 32.8884C64.5875 31.8205 67.4472 30.9655 70.3917 30.3343ZM59.8977 33.6774L77.5094 76.111L51.8796 37.8977C54.4256 36.2903 57.1045 34.8775 59.8977 33.6774ZM50.138 39.0463L75.7678 77.2633L43.0903 44.7345C45.2821 42.661 47.6399 40.7601 50.138 39.0463ZM41.5996 46.195L74.2845 78.7312L35.7807 53.1346C37.5371 50.6685 39.4816 48.3492 41.5996 46.195ZM34.5999 54.852L73.1222 80.4596L30.2348 62.7934C31.482 60.0227 32.9432 57.3658 34.5999 54.852ZM29.4157 64.7053L72.3141 82.3789L26.6925 73.3586C27.3715 70.3788 28.2866 67.487 29.4157 64.7053ZM26.2682 75.3954L74.4468 84.9221H25.283C25.342 81.6707 25.6815 78.489 26.2682 75.3954ZM90.5937 84.9221L138.735 75.399C139.322 78.4926 139.658 81.6743 139.717 84.9221H90.5937Z" fill="#191402"/>
</g>
<defs>
<clipPath id="clip0_37_47">
<rect width="165" height="157" fill="white"/>
</clipPath>
</defs>
</svg>
